<svg width="49" height="48" viewBox="0 0 49 48" fill="none" xmlns="http://www.w3.org/2000/svg">
<path d="M22.5 30C28.5 30 38.5 38 38.5 38V6C38.5 6 28.5 14 22.5 14V30ZM10.5 30L16.5 46H24.5L18.5 30H10.5ZM38.5 28C39.2879 28 40.0681 27.8448 40.7961 27.5433C41.5241 27.2417 42.1855 26.7998 42.7426 26.2426C43.2998 25.6855 43.7417 25.0241 44.0433 24.2961C44.3448 23.5681 44.5 22.7879 44.5 22C44.5 21.2121 44.3448 20.4319 44.0433 19.7039C43.7417 18.9759 43.2998 18.3145 42.7426 17.7574C42.1855 17.2002 41.5241 16.7583 40.7961 16.4567C40.0681 16.1552 39.2879 16 38.5 16V28ZM22.5 38C24.5 38 28.5 36 28.5 32L22.5 38ZM4.5 22C4.5 15.778 8.082 14 12.5 14H22.5V30H12.5C8.082 30 4.5 28.222 4.5 22Z" stroke="#D3381C" stroke-width="2"/>
</svg>
