<svg width="49" height="48" viewBox="0 0 49 48" fill="none" xmlns="http://www.w3.org/2000/svg">
<path opacity="0.3" d="M14 12C14 12.8284 13.3284 13.5 12.5 13.5C11.6716 13.5 11 12.8284 11 12C11 11.1716 11.6716 10.5 12.5 10.5C13.3284 10.5 14 11.1716 14 12Z" fill="#B8D41C" stroke="#D3381C"/>
<path opacity="0.3" d="M38 36C38 36.8284 37.3284 37.5 36.5 37.5C35.6716 37.5 35 36.8284 35 36C35 35.1716 35.6716 34.5 36.5 34.5C37.3284 34.5 38 35.1716 38 36Z" fill="#B8D41C" stroke="#D3381C"/>
<path d="M38.5 30.36V14C38.5 9.58 34.92 6 30.5 6C26.08 6 22.5 9.58 22.5 14V34C22.5 36.2 20.7 38 18.5 38C16.3 38 14.5 36.2 14.5 34V17.64C16.82 16.8 18.5 14.6 18.5 12C18.5 8.68 15.82 6 12.5 6C9.18 6 6.5 8.68 6.5 12C6.5 14.6 8.18 16.8 10.5 17.64V34C10.5 38.42 14.08 42 18.5 42C22.92 42 26.5 38.42 26.5 34V14C26.5 11.8 28.3 10 30.5 10C32.7 10 34.5 11.8 34.5 14V30.36C33.1681 30.8319 32.0458 31.7593 31.3313 32.9785C30.6169 34.1976 30.3563 35.63 30.5956 37.0227C30.8349 38.4153 31.5586 39.6786 32.639 40.5894C33.7194 41.5001 35.0869 41.9998 36.5 42C39.82 42 42.5 39.32 42.5 36C42.5 33.4 40.82 31.2 38.5 30.36ZM12.5 14C11.4 14 10.5 13.1 10.5 12C10.5 10.9 11.4 10 12.5 10C13.6 10 14.5 10.9 14.5 12C14.5 13.1 13.6 14 12.5 14ZM36.5 38C35.4 38 34.5 37.1 34.5 36C34.5 34.9 35.4 34 36.5 34C37.6 34 38.5 34.9 38.5 36C38.5 37.1 37.6 38 36.5 38Z" fill="#D3381C"/>
</svg>
